<svg xmlns="http://www.w3.org/2000/svg" x="0px" y="0px" width="48" height="48" viewBox="4 4 40 40">
<radialGradient id="a" cx="11.177" cy="8.393" r="40.312" gradientUnits="userSpaceOnUse"><stop offset="0" stop-color="#DDDDDD"/><stop offset=".484" stop-color="#EEEEEE"/><stop offset=".775" stop-color="#DDDDDD"/><stop offset="1" stop-color="#EEEEEE"/></radialGradient><path fill="url(#a)" d="M44 24c0 11.045-8.955 20-20 20S4 35.045 4 24 12.955 4 24 4s20 8.955 20 20z"/><radialGradient id="b" cx="24" cy="44.108" r="16.14" gradientUnits="userSpaceOnUse"><stop offset="0"/><stop offset="1" stop-opacity="0"/></radialGradient><path fill="url(#b)" d="M24 44c5.795 0 10.998-2.48 14.651-6.418C36.177 31.943 30.552 28 24 28s-12.177 3.943-14.651 9.582C13.002 41.52 18.205 44 24 44z"/><radialGradient id="c" cx="24" cy="20" r="9.5" gradientUnits="userSpaceOnUse"><stop offset="0"/><stop offset="1" stop-opacity="0"/></radialGradient><circle cx="24" cy="20" r="9.5" fill="url(#c)"/><linearGradient id="d" x1="18.573" x2="29.735" y1="13.573" y2="24.735" gradientUnits="userSpaceOnUse"><stop offset="0" stop-color="#404F4B"/><stop offset="1"/></linearGradient><circle cx="24" cy="19" r="8" fill="url(#d)"/><linearGradient id="e" x1="17.007" x2="30.888" y1="31.21" y2="45.091" gradientUnits="userSpaceOnUse"><stop offset="0" stop-color="#404F4B"/><stop offset="1"/></linearGradient><path fill="url(#e)" d="M24 44c5.015 0 9.587-1.859 13.098-4.909C35.107 33.784 30.002 30 24 30s-11.107 3.784-13.098 9.091C14.413 42.141 18.985 44 24 44z"/>
</svg>
