<?xml version="1.0" encoding="utf-8"?>
<svg version="1.0" width="4000.000000pt" height="3000.000000pt" viewBox="0 726.55 4000 1534.485" preserveAspectRatio="xMidYMid meet" xmlns="http://www.w3.org/2000/svg">
  <g transform="translate(0.000000,3000.000000) scale(0.100000,-0.100000)" fill="#000000" stroke="none">
    <path d="M20495 22691 c-76 -9 -272 -56 -320 -77 -16 -7 -73 -29 -125 -50 -207 -81 -525 -271 -670 -399 -22 -19 -41 -23 -140 -29 -296 -16 -601 -99 -880 -239 -683 -340 -949 -948 -751 -1712 65 -250 216 -607 354 -835 l39 -65 -18 -55 c-28 -87 -30 -231 -6 -328 26 -101 43 -140 98 -218 101 -144 250 -229 456 -260 57 -8 106 -18 109 -22 4 -4 14 -41 24 -82 97 -405 369 -782 714 -989 326 -196 699 -223 1021 -73 140 65 343 227 453 362 20 25 41 50 46 56 25 30 133 198 167 259 78 141 181 408 214 557 11 50 18 61 54 84 123 79 208 224 257 439 19 86 23 130 23 305 1 181 -1 209 -17 233 -20 30 -48 35 -72 11 -13 -14 -15 -35 -9 -158 13 -270 -31 -487 -127 -635 -42 -63 -65 -76 -55 -29 22 100 47 353 58 565 l12 241 35 39 c236 252 317 400 441 803 119 385 159 635 147 915 -20 440 -165 797 -426 1047 -172 167 -366 267 -616 319 -103 22 -378 33 -490 20z m-1124 -1628 c128 -77 366 -190 529 -251 425 -158 836 -244 1275 -265 49 -2 50 -2 52 -37 2 -19 12 -116 22 -215 29 -264 30 -288 41 -543 42 -972 -161 -1709 -591 -2150 -321 -329 -710 -423 -1106 -266 -293 116 -569 387 -723 709 -65 137 -130 341 -130 409 0 39 -28 53 -124 61 -176 14 -310 69 -407 167 -95 94 -149 229 -149 368 1 141 23 182 130 239 69 37 150 42 215 12 88 -40 171 -154 236 -327 31 -82 81 -154 108 -154 6 0 20 9 30 19 48 48 40 285 -23 756 -17 125 -26 174 -63 333 l-27 114 40 31 c74 58 259 253 315 333 150 210 228 411 245 632 4 45 8 82 9 82 1 0 44 -26 96 -57z"/>
    <path d="M20534 19806 c-86 -32 -124 -61 -124 -95 0 -59 37 -65 112 -18 49 29 60 32 138 32 77 0 91 -3 144 -32 33 -18 67 -33 76 -33 24 0 40 21 40 52 0 22 -9 34 -42 55 -102 64 -236 80 -344 39z"/>
    <path d="M19385 19781 c-86 -21 -179 -97 -224 -183 -21 -40 -23 -50 -13 -73 10 -22 18 -26 44 -23 27 2 37 11 61 53 31 54 92 105 146 124 19 6 80 11 137 11 92 0 104 2 114 19 14 28 13 38 -10 61 -18 18 -33 20 -122 19 -57 -1 -116 -4 -133 -8z"/>
    <path d="M20614 19371 c-48 -29 -64 -59 -64 -117 0 -86 62 -141 149 -131 36 4 52 13 78 41 32 34 38 56 33 116 -6 85 -120 138 -196 91z"/>
    <path d="M19984 19366 c-18 -14 -19 -28 -19 -248 0 -199 3 -241 18 -285 32 -92 116 -142 151 -91 22 31 21 34 -18 73 -50 50 -60 108 -54 346 4 182 4 197 -13 208 -25 15 -41 14 -65 -3z"/>
    <path d="M19399 19332 c-33 -31 -42 -46 -46 -82 -5 -54 19 -100 69 -130 120 -73 254 74 175 191 -28 42 -60 59 -115 59 -36 0 -49 -6 -83 -38z"/>
    <path d="M18289 19144 c-22 -27 -15 -123 14 -180 27 -53 58 -86 122 -128 50 -33 80 -33 101 -2 21 33 10 50 -57 95 -65 44 -91 85 -91 148 0 27 -5 56 -10 66 -11 22 -61 23 -79 1z"/>
    <path d="M20343 18222 c-26 -27 -66 -74 -88 -105 -55 -76 -79 -89 -162 -85 -65 3 -67 2 -77 -25 -16 -43 16 -68 95 -74 99 -7 143 18 231 132 25 33 62 76 82 94 39 38 46 70 20 95 -26 26 -51 18 -101 -32z"/>
    <path d="M32816 20379 c-140 -11 -312 -41 -451 -80 -143 -40 -194 -59 -318 -118 l-102 -49 -160 -6 c-394 -12 -736 -156 -1001 -421 -396 -397 -574 -1019 -534 -1875 10 -209 9 -271 -4 -425 -23 -261 -51 -392 -121 -570 -180 -457 -225 -905 -114 -1145 29 -62 30 -71 33 -225 3 -176 19 -266 98 -575 37 -146 42 -178 41 -275 0 -122 -18 -193 -76 -295 -26 -47 -79 -124 -97 -140 -3 -3 -22 -25 -43 -49 -38 -46 -47 -87 -25 -109 25 -25 53 -12 104 46 139 160 197 265 229 418 25 118 20 192 -29 390 -69 280 -106 482 -106 588 0 61 2 67 18 61 175 -74 395 -95 512 -50 25 10 59 31 76 47 l32 30 43 -64 c144 -213 327 -420 470 -528 135 -104 310 -187 432 -207 23 -3 82 -25 131 -48 240 -111 460 -149 634 -110 91 21 160 63 219 132 91 108 118 130 166 137 53 8 73 -1 107 -51 54 -80 77 -228 49 -328 -27 -95 -124 -188 -274 -261 -117 -56 -195 -74 -326 -74 -130 0 -232 24 -344 81 -97 50 -138 81 -236 178 -83 83 -142 159 -208 266 -60 97 -82 112 -115 79 -25 -25 -19 -51 30 -132 127 -209 306 -390 468 -474 l40 -20 -30 -21 c-57 -41 -177 -163 -216 -220 -51 -75 -103 -186 -123 -262 -16 -62 -23 -244 -11 -283 8 -25 52 -40 75 -25 13 8 17 37 22 139 4 71 13 152 21 179 44 147 162 300 315 403 49 33 67 41 91 36 l29 -6 1 -121 c0 -117 10 -174 58 -345 5 -19 -11 -39 -103 -130 -155 -153 -299 -231 -465 -252 -76 -9 -98 -21 -98 -55 0 -40 23 -48 113 -42 176 12 396 135 556 309 24 26 47 48 51 48 4 0 24 -26 45 -57 65 -98 183 -205 306 -276 72 -42 119 -33 119 22 0 22 -14 35 -88 79 -206 125 -339 311 -380 532 -16 84 -22 191 -14 230 l8 35 89 2 c49 1 103 4 119 7 36 7 58 -9 129 -98 87 -108 153 -248 182 -388 18 -83 19 -253 4 -348 -14 -82 -4 -103 45 -98 38 4 51 37 64 167 25 243 -49 509 -194 700 -27 35 -55 72 -62 82 -12 16 -7 21 61 52 42 19 97 50 124 67 75 51 166 149 199 215 25 51 29 74 32 161 l4 102 80 -48 c220 -134 511 -163 861 -85 60 14 150 38 200 53 88 28 291 107 312 122 6 4 19 10 30 14 16 6 18 5 8 -5 -16 -16 -17 -61 -1 -77 7 -7 44 -12 94 -12 46 0 136 -7 201 -15 580 -76 1009 -410 1387 -1082 77 -138 197 -386 310 -643 176 -398 295 -657 364 -790 61 -119 180 -329 192 -340 3 -3 23 -32 44 -65 69 -105 133 -186 223 -277 56 -58 87 -70 111 -46 27 27 12 60 -62 139 -94 101 -221 280 -309 434 -108 188 -201 380 -392 810 -215 486 -352 766 -468 955 -241 395 -464 626 -772 804 -233 134 -545 215 -832 216 -77 1 -78 1 -48 16 444 232 783 523 904 774 28 59 37 90 39 147 6 109 -6 132 -128 253 -128 126 -223 264 -275 399 -89 231 -97 320 -83 924 17 712 2 970 -86 1467 -30 168 -44 224 -93 374 -198 614 -666 1050 -1309 1221 -266 71 -544 96 -828 74z m-1132 -1301 c151 -604 654 -1385 1191 -1851 78 -67 90 -83 54 -74 -13 4 -48 7 -77 7 -41 0 -54 4 -59 18 -18 47 -91 147 -140 191 -31 27 -85 64 -122 83 -63 31 -71 32 -186 33 -118 0 -121 -1 -195 -37 -86 -42 -164 -114 -217 -200 -20 -32 -39 -58 -42 -58 -3 0 -29 9 -58 20 -29 11 -85 22 -125 24 l-73 5 -7 58 c-39 309 -260 519 -528 500 -77 -5 -162 -33 -212 -68 l-28 -20 0 29 c0 49 38 242 70 357 43 152 123 362 181 476 43 83 161 274 179 289 3 3 16 19 29 35 27 36 125 138 172 180 38 34 151 115 160 115 3 0 18 -51 33 -112z m-403 -1415 c173 -86 271 -287 241 -494 -37 -255 -250 -429 -464 -379 -77 18 -125 45 -184 104 -91 91 -140 217 -131 330 9 103 53 264 84 309 106 154 296 207 454 130z m1214 -307 c325 -160 323 -691 -5 -848 -56 -27 -76 -32 -145 -32 -69 0 -90 4 -145 30 -159 75 -250 233 -250 436 0 145 56 269 163 363 70 61 140 85 242 82 65 -2 91 -7 140 -31z m-679 -247 l42 -20 -6 -109 c-6 -137 7 -210 59 -318 74 -154 204 -255 363 -283 307 -53 586 240 563 591 l-5 86 141 -4 c126 -4 147 -7 182 -28 79 -46 172 -74 243 -74 64 0 71 3 142 50 161 108 336 146 469 100 143 -48 205 -121 276 -325 25 -70 29 -95 29 -195 0 -101 -3 -123 -26 -181 -15 -37 -39 -86 -54 -110 -77 -118 -236 -244 -383 -304 l-71 -28 0 -42 c0 -91 -50 -199 -146 -311 -42 -50 -168 -175 -363 -360 -92 -88 -191 -196 -222 -244 -15 -23 -23 -25 -97 -26 -45 -1 -110 -7 -144 -13 -35 -7 -128 -23 -208 -37 -80 -14 -221 -39 -315 -56 -142 -25 -197 -31 -335 -31 -142 -1 -176 2 -245 21 -218 62 -415 202 -612 437 -95 114 -266 355 -288 408 -40 97 -93 320 -117 497 -22 168 -14 750 11 750 4 0 22 -22 39 -48 47 -74 125 -140 207 -178 261 -120 554 24 650 320 24 75 31 85 54 89 48 6 125 -5 167 -24z m834 -2298 c-16 -30 -90 -86 -140 -106 -74 -29 -218 -32 -331 -5 -114 26 -141 39 -84 40 38 0 296 42 450 74 104 21 118 20 105 -3z"/>
    <path d="M31047 17380 c-29 -33 -42 -94 -32 -142 18 -80 73 -148 122 -148 59 0 93 53 93 144 -1 134 -116 226 -183 146z"/>
    <path d="M32288 17099 c-32 -12 -68 -80 -68 -130 0 -91 58 -179 118 -179 70 0 114 82 94 176 -13 63 -42 108 -82 129 -16 8 -30 15 -32 14 -2 0 -15 -5 -30 -10z"/>
    <path d="M31618 16917 c-9 -7 -21 -33 -28 -57 -6 -25 -36 -110 -66 -190 -88 -237 -92 -307 -20 -381 62 -64 245 -129 281 -99 10 8 15 25 13 44 -3 29 -8 32 -98 62 -120 40 -156 74 -146 138 4 22 18 72 32 111 15 38 47 129 72 201 44 128 45 133 29 158 -19 28 -42 33 -69 13z"/>
    <path d="M33905 16796 c-15 -22 -15 -27 -1 -55 26 -50 48 -160 41 -205 -4 -23 -18 -60 -32 -84 -23 -41 -24 -45 -9 -68 19 -29 56 -32 79 -6 23 25 54 100 62 150 9 58 -11 166 -43 232 -22 44 -32 56 -54 58 -20 2 -31 -3 -43 -22z"/>
    <path d="M31362 15758 c-31 -31 3 -119 67 -175 83 -73 210 -105 342 -85 107 15 133 29 137 69 5 49 -23 59 -106 38 -117 -30 -252 -5 -308 57 -12 12 -33 42 -48 66 -27 43 -59 55 -84 30z"/>
    <path d="M7445 19309 c-626 -64 -1216 -352 -1691 -824 -197 -196 -329 -359 -456 -562 -65 -105 -153 -270 -181 -342 -20 -49 -2 -47 -172 -16 -156 28 -448 15 -640 -30 -342 -79 -724 -266 -1060 -519 -250 -187 -418 -365 -594 -626 -490 -730 -602 -1520 -315 -2236 305 -763 905 -1213 1744 -1309 372 -42 848 1 1164 106 138 46 343 167 531 314 55 43 102 81 105 84 3 3 28 27 55 52 95 86 240 245 316 344 393 515 643 1159 758 1950 11 77 25 192 32 255 6 63 12 116 12 116 2 2 544 51 702 64 61 5 133 12 161 15 l52 6 7 -73 c21 -215 103 -376 221 -434 48 -23 63 -26 122 -22 56 4 78 11 123 40 217 139 348 517 299 861 -35 243 -177 410 -334 394 -142 -14 -273 -144 -358 -354 -37 -93 -68 -216 -68 -272 0 -16 -4 -32 -9 -35 -7 -5 -860 -86 -900 -86 -8 0 -11 40 -11 133 0 534 -165 1011 -449 1299 -48 49 -85 88 -83 88 1 0 28 -13 60 -29 250 -125 613 -186 902 -151 248 30 524 120 687 223 24 15 44 27 47 27 2 0 7 -17 10 -37 13 -72 47 -258 62 -330 8 -40 14 -75 14 -78 0 -3 10 -5 23 -6 17 0 29 -14 54 -68 50 -105 217 -345 326 -469 40 -46 157 -162 275 -273 74 -69 99 -101 125 -155 29 -62 32 -78 32 -159 -1 -74 -5 -98 -24 -135 -21 -39 -67 -103 -104 -142 -7 -7 -37 -42 -67 -78 -30 -36 -57 -67 -60 -70 -3 -3 -27 -30 -53 -61 l-47 -56 15 -119 c9 -65 18 -209 22 -319 14 -455 -64 -781 -254 -1067 -48 -74 -224 -258 -298 -314 -186 -140 -458 -271 -755 -363 -109 -34 -125 -51 -95 -97 21 -32 34 -30 223 33 217 72 444 180 597 283 411 277 630 665 676 1200 13 142 6 467 -12 611 -14 113 -10 132 34 179 18 19 79 89 135 155 142 167 179 253 169 394 -9 132 -73 251 -197 362 -204 184 -303 293 -422 464 -66 94 -168 256 -168 266 0 3 21 14 48 24 160 59 272 198 350 430 69 206 101 504 71 671 -59 334 -326 640 -677 776 -236 91 -526 126 -807 97z m1028 -2503 c75 -31 143 -153 168 -301 46 -269 -72 -637 -240 -749 -93 -62 -173 -44 -240 53 -154 227 -100 703 106 921 78 82 139 104 206 76z"/>
    <path d="M8352 16400 c-59 -61 -79 -196 -42 -277 20 -45 50 -61 90 -48 34 11 76 79 90 145 33 153 -55 267 -138 180z"/>
    <path d="M20560 17259 c-103 -77 -228 -135 -360 -165 -105 -24 -128 -26 -270 -21 -123 4 -175 10 -253 31 -120 31 -241 87 -325 150 -60 44 -65 46 -77 29 -29 -37 -39 -117 -27 -205 7 -45 9 -85 5 -89 -5 -3 -66 -19 -138 -34 -571 -122 -1070 -336 -1446 -620 -140 -107 -154 -119 -309 -274 -189 -190 -344 -392 -501 -654 -57 -95 -230 -423 -241 -457 -4 -13 -41 -16 -225 -20 l-221 -5 -39 -31 c-21 -17 -48 -48 -61 -70 -22 -37 -23 -45 -18 -194 3 -85 12 -274 21 -420 8 -146 22 -391 30 -545 9 -154 22 -395 30 -535 8 -140 26 -466 40 -725 14 -258 32 -585 40 -725 8 -140 24 -426 35 -635 34 -645 40 -726 54 -759 16 -37 59 -81 101 -104 28 -16 284 -17 3445 -17 3189 0 3417 1 3445 17 49 28 84 63 100 101 13 32 15 307 15 2314 l0 2277 -21 43 c-13 27 -36 53 -64 70 -37 24 -48 40 -76 108 -101 248 -303 596 -444 764 -148 177 -284 319 -394 411 -29 25 -59 50 -65 55 -61 58 -311 230 -416 287 -145 80 -181 98 -291 146 -286 127 -652 222 -851 222 l-65 0 0 88 c1 48 -5 106 -12 130 -11 39 -64 113 -80 111 -3 0 -35 -23 -71 -50z m-1219 -395 c80 -86 246 -178 384 -215 106 -28 293 -30 420 -5 156 31 360 116 491 207 l47 32 121 -6 c408 -21 947 -234 1355 -535 389 -286 716 -682 919 -1112 82 -172 93 -200 79 -205 -7 -2 -253 -6 -547 -9 -294 -4 -1030 -13 -1635 -21 -1947 -26 -3268 -44 -3762 -51 -266 -4 -483 -4 -483 0 0 8 130 264 171 336 242 426 532 762 866 1002 393 283 789 444 1478 601 48 11 72 6 96 -19z"/>
    <path d="M20899 16388 c-8 -7 -55 -60 -105 -118 -49 -58 -101 -118 -115 -135 -15 -16 -67 -78 -118 -136 -159 -187 -287 -247 -498 -237 -91 4 -108 9 -238 62 -215 88 -272 106 -361 118 -188 26 -388 -42 -527 -178 -68 -65 -217 -289 -217 -324 0 -56 73 -61 101 -7 42 80 150 225 200 271 112 101 264 154 408 141 82 -7 138 -24 316 -98 171 -71 232 -86 350 -86 151 -1 245 26 365 105 66 43 111 86 210 204 30 36 57 67 61 70 3 3 31 37 64 75 32 39 81 96 109 129 50 57 75 93 76 109 0 12 -39 47 -53 47 -7 0 -20 -6 -28 -12z"/>
    <path d="M15493 16600 c-47 -19 -43 -32 87 -360 34 -85 96 -245 137 -355 42 -110 81 -203 87 -207 24 -17 66 -8 77 15 9 19 -5 63 -87 272 -53 138 -129 333 -168 434 -74 191 -91 217 -133 201z"/>
    <path d="M14706 16214 c-9 -8 -16 -22 -16 -31 0 -9 39 -56 88 -106 48 -50 110 -114 137 -142 247 -256 358 -365 370 -365 16 0 55 34 55 48 0 19 -54 79 -285 317 -137 142 -259 266 -269 277 -24 22 -59 23 -80 2z"/>
    <path d="M24426 16134 c-9 -8 -28 -36 -43 -62 -14 -26 -71 -121 -126 -212 -150 -248 -197 -331 -197 -351 0 -24 36 -48 61 -42 12 3 29 20 40 37 44 71 246 408 295 493 58 101 62 114 38 137 -20 20 -48 20 -68 0z"/>
    <path d="M24671 15593 c-149 -124 -253 -217 -257 -231 -7 -27 19 -62 47 -62 9 0 62 37 117 83 54 45 118 98 142 117 24 19 48 40 54 45 6 6 49 42 96 80 102 83 120 102 120 126 0 23 -26 49 -50 49 -10 0 -131 -93 -269 -207z"/>
    <path d="M14704 15485 c-31 -47 -7 -62 222 -148 115 -42 218 -77 230 -77 43 0 60 53 27 82 -21 18 -417 168 -444 168 -10 0 -26 -11 -35 -25z"/>
    <path d="M7416 15234 c-21 -21 -20 -57 2 -77 39 -36 92 -10 92 43 0 46 -61 68 -94 34z"/>
    <path d="M24878 15166 c-69 -65 -162 -82 -281 -51 -77 20 -84 19 -103 -10 -41 -62 37 -100 206 -100 95 0 111 3 162 28 61 30 128 96 128 126 0 24 -26 51 -49 51 -9 0 -37 -20 -63 -44z"/>
    <path d="M31222 14818 c-7 -7 -12 -35 -12 -62 0 -129 -42 -280 -124 -451 -58 -120 -165 -288 -239 -374 -26 -30 -47 -62 -47 -71 0 -23 32 -50 58 -50 29 0 142 144 237 301 124 206 199 416 211 594 6 78 4 93 -10 108 -20 20 -57 22 -74 5z"/>
    <path d="M7702 14804 c-22 -15 -29 -48 -14 -71 14 -22 59 -33 91 -22 51 18 48 79 -5 99 -34 13 -46 13 -72 -6z"/>
    <path d="M8187 14782 c-21 -24 -22 -82 -1 -153 12 -42 28 -66 72 -109 61 -59 119 -86 210 -97 58 -7 82 6 82 43 0 33 -22 50 -77 58 -66 10 -130 44 -165 87 -24 29 -31 50 -35 100 -3 35 -10 70 -16 77 -14 18 -51 15 -70 -6z"/>
    <path d="M7199 14709 c-36 -36 -3 -89 56 -89 33 0 65 25 65 51 0 9 -9 25 -20 37 -26 28 -73 29 -101 1z"/>
    <path d="M11064 14647 c-49 -27 -245 -180 -425 -334 -90 -76 -233 -222 -250 -255 -37 -71 -19 -168 46 -259 l34 -48 -32 -5 c-18 -3 -61 -11 -97 -16 -353 -58 -631 -248 -775 -532 -100 -195 -108 -258 -34 -258 22 0 30 8 47 43 10 23 23 53 27 67 15 49 73 156 118 215 166 223 376 333 722 379 l110 14 34 -35 c29 -29 32 -38 23 -52 -39 -52 -52 -79 -52 -103 0 -69 47 -120 122 -136 29 -6 70 -18 91 -27 50 -21 124 -89 148 -138 24 -47 21 -53 -72 -145 -112 -111 -260 -199 -458 -271 -232 -86 -417 -215 -559 -391 l-20 -25 -6 30 c-53 259 -172 455 -321 533 -40 20 -64 26 -120 26 -108 0 -143 -23 -326 -216 -85 -89 -189 -198 -230 -241 -41 -43 -78 -89 -84 -103 -21 -55 45 -86 87 -41 13 13 64 66 113 118 50 52 146 153 214 226 105 113 130 134 172 148 96 32 187 -18 275 -150 116 -176 160 -446 104 -650 -31 -113 -34 -133 -20 -150 19 -22 57 -18 74 8 22 34 45 106 60 194 8 44 22 95 31 114 54 106 172 234 295 321 89 63 166 103 295 153 161 63 219 91 327 162 114 74 233 187 306 291 24 33 67 136 76 183 8 43 12 48 116 139 47 41 87 77 90 80 3 3 34 30 70 60 36 30 67 57 70 60 3 3 43 39 90 80 113 100 186 177 207 220 9 19 19 66 21 103 8 134 -36 200 -353 523 -94 95 -151 124 -247 124 -63 0 -81 -5 -134 -33z m211 -81 c36 -15 80 -57 244 -231 136 -144 173 -200 179 -268 8 -104 -3 -116 -363 -428 -16 -14 -70 -61 -119 -105 -56 -49 -91 -73 -94 -65 -11 32 -69 83 -125 111 -69 33 -143 50 -223 50 l-53 0 -96 104 c-114 122 -155 185 -155 241 0 37 6 46 93 130 50 50 115 109 142 132 28 23 84 70 125 105 147 123 258 208 291 223 44 18 110 19 154 1z m-427 -1081 c76 -18 129 -44 162 -80 20 -21 25 -37 24 -73 0 -26 -7 -60 -16 -75 l-15 -29 -17 27 c-49 74 -150 143 -249 169 -68 18 -77 23 -77 42 0 34 86 43 188 19z"/>
    <path d="M23576 13975 c-9 -9 -16 -24 -16 -32 0 -9 29 -62 63 -117 90 -143 99 -158 162 -284 194 -391 229 -748 114 -1167 -49 -179 -175 -467 -284 -649 -30 -51 -55 -100 -55 -109 0 -23 28 -47 55 -47 60 0 300 488 378 770 101 362 98 661 -7 985 -44 133 -158 365 -264 535 -64 103 -82 126 -103 128 -15 2 -34 -4 -43 -13z"/>
    <path d="M29995 13896 c-398 -66 -738 -285 -960 -618 -111 -166 -401 -748 -545 -1093 -115 -275 -178 -473 -211 -665 -15 -85 -11 -285 6 -385 9 -49 20 -114 25 -144 11 -62 24 -81 55 -81 53 0 58 43 25 212 -24 126 -26 297 -4 422 33 188 135 473 302 841 83 183 355 717 406 799 82 129 184 245 296 335 25 20 47 38 50 41 8 9 168 110 174 110 3 0 40 16 81 35 281 129 664 139 919 22 31 -14 77 -47 104 -74 89 -89 122 -193 122 -383 0 -261 -97 -622 -293 -1085 -110 -259 -130 -302 -277 -603 -83 -168 -150 -313 -150 -323 0 -25 38 -49 63 -40 35 13 317 588 469 956 213 518 311 924 287 1190 -10 114 -17 140 -60 231 -67 143 -184 225 -394 280 -123 32 -361 42 -490 20z"/>
    <path d="M15908 13648 c-37 -31 -111 -283 -144 -493 -23 -148 -23 -444 0 -572 44 -247 138 -468 263 -620 37 -47 61 -53 86 -25 24 27 21 49 -12 91 -43 54 -115 178 -149 257 -142 331 -144 795 -3 1209 37 110 39 121 25 142 -16 26 -42 30 -66 11z"/>
    <path d="M10208 13451 c-96 -38 -136 -81 -116 -125 15 -34 53 -34 98 -1 19 14 51 31 71 37 116 34 271 -66 413 -267 38 -52 75 -95 83 -95 30 0 53 21 53 48 0 37 -88 168 -166 246 -88 88 -153 131 -233 156 -78 25 -142 25 -203 1z"/>
    <path d="M6997 13332 c-24 -26 -22 -41 17 -119 128 -255 234 -574 262 -786 9 -67 18 -136 20 -154 5 -35 29 -49 70 -39 22 6 24 11 24 74 0 103 -47 335 -95 471 -8 24 -14 46 -12 48 4 3 25 -8 192 -99 55 -30 159 -85 230 -123 72 -38 152 -81 178 -97 26 -15 50 -28 52 -28 2 0 78 -40 167 -88 90 -49 208 -113 263 -142 55 -29 132 -70 171 -91 83 -46 98 -47 120 -14 22 34 11 57 -43 85 -26 14 -72 39 -103 56 -30 17 -152 83 -270 146 -118 64 -244 131 -280 150 -327 176 -503 270 -600 321 -63 33 -120 65 -126 71 -6 6 -30 58 -54 116 -100 241 -138 292 -183 242z"/>
    <path d="M10070 13160 c-140 -22 -310 -118 -310 -175 0 -52 54 -59 110 -15 120 95 326 121 481 60 27 -11 58 -20 69 -20 22 0 50 25 50 46 0 64 -245 127 -400 104z"/>
    <path d="M6443 13100 c-49 -20 -42 4 -225 -845 -11 -55 -24 -103 -27 -107 -4 -4 -106 79 -227 185 -121 105 -249 217 -284 247 -35 30 -68 60 -74 65 -94 87 -179 155 -213 169 -49 22 -38 28 -223 -119 -155 -124 -337 -297 -473 -451 -75 -85 -235 -307 -305 -423 -305 -511 -445 -1067 -482 -1916 -16 -375 -9 -1534 9 -1563 12 -18 47 -22 67 -8 19 14 19 33 19 818 1 668 4 837 18 1008 57 683 181 1128 440 1585 28 50 54 92 57 95 3 3 17 23 30 45 29 47 133 186 203 270 160 193 604 589 625 560 4 -6 41 -39 82 -75 41 -36 77 -67 80 -70 3 -3 23 -20 45 -39 22 -19 72 -62 110 -96 39 -34 115 -102 170 -150 55 -48 114 -100 130 -114 140 -124 165 -141 203 -141 73 0 82 25 167 430 13 63 35 162 48 220 13 58 35 153 47 212 l23 108 174 -180 c96 -98 213 -220 260 -269 90 -95 115 -107 146 -73 35 38 59 9 -419 500 -123 126 -151 143 -201 122z"/>
    <path d="M11290 12793 c-14 -5 -128 -93 -161 -125 -8 -7 -48 -42 -89 -78 -41 -36 -88 -77 -105 -92 -16 -14 -41 -36 -55 -48 -38 -33 -201 -182 -227 -208 -13 -13 -23 -35 -23 -51 0 -26 -4 -29 -42 -33 -93 -11 -222 -100 -429 -294 -108 -102 -149 -133 -285 -214 -280 -166 -294 -176 -294 -208 0 -32 16 -52 41 -52 10 0 78 37 151 82 73 44 171 104 218 132 47 27 96 58 110 69 19 14 161 145 254 233 6 6 48 38 94 72 83 62 147 90 176 79 21 -8 21 -98 2 -182 -38 -164 -28 -233 39 -261 78 -32 178 31 411 259 85 84 169 160 187 169 74 39 121 10 93 -57 -23 -53 -94 -141 -188 -230 -91 -86 -101 -95 -195 -169 -66 -52 -78 -79 -47 -110 31 -32 41 -27 198 102 56 46 156 143 210 204 54 59 89 64 94 13 6 -65 -152 -251 -360 -424 -74 -61 -88 -78 -88 -102 0 -42 38 -59 77 -34 47 30 152 123 260 229 108 106 127 113 125 46 -2 -75 -128 -201 -334 -336 -57 -37 -68 -48 -68 -72 0 -33 16 -52 45 -52 11 0 56 25 100 54 44 30 81 51 83 46 6 -18 -41 -93 -85 -135 -82 -79 -227 -138 -423 -172 -92 -16 -154 -17 -503 -15 -299 3 -402 1 -413 -8 -20 -17 -18 -67 4 -78 27 -14 701 -24 815 -12 184 19 338 60 466 123 71 35 178 132 206 187 24 47 45 126 45 172 0 32 8 46 54 93 29 31 68 82 85 114 23 44 44 67 81 91 56 36 111 95 167 179 47 70 48 106 4 246 -88 279 -281 677 -411 847 -8 10 -53 17 -70 11z m101 -248 c124 -216 227 -452 291 -664 l28 -94 -32 -51 c-28 -46 -124 -146 -138 -146 -4 0 -18 13 -33 28 l-27 29 26 57 c36 78 31 147 -13 187 -17 14 -35 28 -41 30 -8 3 -6 20 5 52 13 39 14 55 4 87 -14 46 -71 100 -109 101 -105 4 -157 -25 -304 -173 -64 -65 -121 -118 -125 -118 -5 0 -33 42 -62 93 -30 50 -69 117 -87 149 -19 31 -34 61 -34 66 0 6 39 45 88 89 48 43 89 80 92 83 3 3 43 39 90 80 47 41 87 77 90 80 3 3 34 30 70 60 36 30 67 57 70 60 3 3 18 16 34 28 37 28 35 30 117 -113z m-631 -605 c0 -4 18 -38 40 -74 22 -36 40 -69 40 -73 0 -13 -107 -83 -125 -83 -14 0 -16 6 -11 33 32 182 40 216 47 211 5 -3 9 -9 9 -14z"/>
    <path d="M25564 12697 c-201 -203 -288 -483 -223 -717 11 -41 49 -129 84 -195 71 -134 102 -226 111 -324 11 -117 -27 -246 -95 -323 -46 -53 -38 -98 19 -98 70 0 163 173 176 327 12 143 -33 310 -126 474 -62 109 -81 170 -87 279 -10 183 64 356 218 510 49 49 59 76 37 98 -25 25 -71 12 -114 -31z"/>
    <path d="M25058 12452 c-42 -17 -100 -130 -123 -239 -41 -192 9 -432 136 -657 61 -108 85 -136 116 -136 33 0 58 42 42 72 -7 13 -15 25 -19 28 -17 13 -96 165 -125 240 -49 129 -60 184 -60 310 0 125 20 205 71 279 28 42 31 79 7 97 -20 15 -22 15 -45 6z"/>
    <path d="M6858 12013 c-65 -70 -65 -148 -1 -207 61 -57 155 -14 168 77 12 79 -40 157 -105 157 -27 0 -43 -7 -62 -27z"/>
    <path d="M14720 11941 c-184 -27 -378 -118 -482 -225 -41 -43 -158 -319 -217 -512 -107 -349 -66 -582 113 -641 107 -35 1020 -26 1238 12 111 19 226 65 303 120 95 68 151 145 186 255 41 129 22 356 -39 477 -33 62 -191 206 -342 308 -231 158 -531 239 -760 206z m340 -121 c86 -21 236 -87 325 -142 78 -49 203 -149 281 -224 80 -77 94 -109 114 -253 28 -208 -60 -383 -234 -465 -119 -57 -265 -82 -503 -88 -84 -2 -104 0 -109 12 -4 8 -9 87 -12 175 -5 170 6 257 49 394 22 70 82 196 99 206 11 7 13 45 4 69 -4 10 -18 16 -40 16 -30 0 -36 -6 -74 -69 -53 -89 -103 -231 -125 -355 -14 -79 -17 -133 -13 -278 l6 -180 -317 4 c-291 3 -319 5 -355 23 -52 26 -73 57 -88 127 -30 144 57 480 200 768 39 78 56 102 97 132 92 69 235 129 350 148 85 13 246 4 345 -20z"/>
    <path d="M33633 11620 c-68 -13 -176 -56 -238 -96 -61 -40 -114 -89 -185 -174 -30 -36 -57 -67 -60 -70 -3 -3 -26 -34 -51 -70 -102 -147 -149 -260 -149 -360 0 -73 17 -117 58 -152 40 -33 86 -41 147 -25 28 8 57 16 65 18 8 2 14 -2 12 -9 -6 -32 20 -93 52 -117 43 -33 97 -33 162 0 l49 25 30 -35 c58 -67 142 -81 255 -42 l65 23 34 -23 c113 -76 320 40 500 281 81 108 86 121 66 152 -30 46 -58 32 -121 -58 -77 -111 -205 -236 -277 -270 -93 -46 -130 -34 -90 30 16 25 120 161 132 172 4 3 32 33 64 68 57 63 69 96 45 120 -17 17 -65 15 -75 -2 -4 -8 -33 -41 -64 -73 -72 -75 -144 -164 -187 -231 -27 -43 -45 -59 -88 -79 -98 -44 -166 -40 -194 13 -12 22 -10 27 41 81 121 128 309 385 309 423 0 26 -35 53 -59 45 -12 -3 -42 -36 -68 -73 -108 -154 -193 -261 -268 -337 -152 -155 -236 -178 -203 -57 29 105 136 267 294 447 34 39 64 79 65 91 5 27 -18 54 -46 54 -35 0 -163 -146 -297 -341 -76 -109 -120 -151 -192 -185 -62 -29 -71 -29 -96 -4 -75 75 50 335 271 566 143 150 334 209 567 174 300 -45 695 -270 978 -557 89 -91 116 -107 142 -81 30 30 14 65 -75 155 -105 105 -133 130 -238 209 -238 180 -460 294 -695 355 -87 23 -305 33 -387 19z"/>
    <path d="M9076 11487 c-34 -34 -104 -109 -156 -167 -123 -134 -158 -168 -255 -244 -218 -172 -422 -263 -690 -310 -118 -21 -374 -21 -512 0 -453 67 -977 326 -1281 633 -49 50 -96 91 -105 91 -34 0 -47 -13 -47 -44 0 -77 270 -308 540 -462 436 -249 868 -362 1273 -334 153 11 342 52 466 101 205 82 422 227 581 390 42 42 211 226 250 271 l28 31 48 -28 c184 -106 350 -319 412 -530 36 -120 46 -232 33 -359 -31 -288 -111 -439 -320 -597 l-66 -51 -7 139 c-13 257 -46 482 -107 726 -32 127 -42 147 -75 147 -53 -1 -59 -28 -30 -136 32 -118 79 -372 95 -509 6 -60 12 -187 13 -280 l1 -170 -56 -85 c-78 -119 -150 -203 -313 -365 -293 -292 -532 -477 -1046 -810 -295 -190 -768 -438 -945 -495 -22 -7 -46 -17 -52 -23 -21 -16 -15 -55 10 -72 22 -14 29 -13 93 9 265 93 797 383 1169 641 50 34 102 68 115 75 24 12 24 12 9 -6 -16 -19 -62 -85 -164 -234 -28 -41 -67 -97 -86 -125 -20 -27 -69 -99 -111 -160 -41 -60 -152 -222 -247 -359 -94 -138 -171 -256 -171 -263 0 -17 36 -53 53 -53 23 0 59 47 307 410 261 381 328 478 544 792 77 112 145 207 153 211 7 4 33 25 57 45 24 20 54 45 67 56 251 199 496 455 648 677 46 68 72 94 148 148 131 95 176 135 231 204 131 167 184 345 184 617 0 123 -3 159 -25 242 -27 102 -89 237 -153 335 -99 148 -344 343 -432 343 -9 0 -43 -28 -76 -63z"/>
    <path d="M7011 11384 c-63 -52 -63 -156 0 -208 37 -31 77 -33 113 -5 57 44 70 111 37 177 -33 64 -98 80 -150 36z"/>
    <path d="M11568 11009 c-21 -12 -24 -59 -6 -77 17 -17 2009 -17 2026 0 18 18 15 53 -6 71 -17 16 -101 17 -1008 17 -653 -1 -995 -4 -1006 -11z"/>
    <path d="M25888 11009 c-21 -12 -24 -59 -6 -77 9 -9 260 -12 1069 -12 l1058 0 15 22 c20 29 20 34 -4 58 -20 20 -33 20 -1067 20 -693 -1 -1054 -4 -1065 -11z"/>
    <path d="M30060 11000 c-25 -25 -25 -42 -2 -63 17 -16 123 -17 1320 -17 1169 0 1302 2 1316 16 21 21 20 47 -2 67 -17 16 -123 17 -1315 17 -1284 0 -1297 0 -1317 -20z"/>
    <path d="M35125 10996 c-16 -23 -11 -54 9 -68 18 -12 2694 -10 2717 2 23 13 25 53 3 74 -14 14 -151 16 -1364 16 l-1350 0 -15 -24z"/>
    <path d="M25155 10810 c-221 -14 -344 -41 -397 -89 -27 -24 -31 -35 -35 -97 l-5 -69 -102 -1 c-146 -1 -233 -39 -293 -127 -26 -39 -28 -49 -28 -142 0 -86 4 -110 28 -172 73 -185 226 -388 430 -569 48 -42 63 -65 91 -132 63 -152 177 -296 267 -340 109 -53 268 -54 419 -2 86 30 92 30 172 20 218 -27 421 2 503 73 l39 34 -29 19 c-26 17 -53 19 -257 22 -207 3 -248 8 -218 27 20 12 82 148 120 264 82 244 113 553 92 913 -14 231 -22 266 -74 297 -91 56 -426 88 -723 71z m-279 -185 c113 -33 248 -49 424 -48 181 1 278 10 439 44 52 10 96 18 97 16 2 -1 8 -68 13 -147 24 -331 5 -598 -59 -845 -72 -273 -184 -448 -315 -490 -129 -42 -313 -20 -373 44 -114 122 -178 247 -228 444 -54 214 -81 489 -70 727 6 134 16 270 21 270 1 0 24 -7 51 -15z m-215 -171 l44 -6 1 -217 c2 -206 20 -410 45 -505 6 -21 8 -40 5 -43 -3 -3 -35 27 -72 66 -218 232 -337 494 -279 614 34 71 136 107 256 91z"/>
    <path d="M12262 10138 c-27 -27 -16 -59 117 -350 27 -60 53 -76 87 -53 13 8 24 24 24 34 0 18 -144 345 -163 369 -12 15 -49 16 -65 0z"/>
    <path d="M16354 10086 c-42 -19 -91 -81 -99 -127 -12 -70 21 -139 86 -178 l34 -21 3461 0 3461 0 40 29 c104 75 96 229 -16 288 l-44 23 -3446 0 c-2858 -1 -3451 -3 -3477 -14z"/>
    <path d="M13332 10044 c-19 -9 -407 -608 -424 -655 -4 -11 -71 -32 -230 -72 -122 -31 -290 -74 -373 -94 -130 -33 -151 -41 -162 -63 -10 -19 -13 -123 -12 -454 l1 -429 -289 2 c-420 3 -608 -27 -696 -111 -36 -34 -39 -41 -34 -74 7 -41 22 -55 92 -89 150 -72 460 -110 983 -122 211 -4 302 -3 302 4 0 6 -15 20 -32 31 -41 26 -175 120 -212 149 -22 18 -25 25 -17 41 7 12 10 186 11 482 0 255 2 465 3 466 2 2 124 -36 272 -85 l270 -88 5 -519 c3 -286 6 -520 8 -521 1 -2 16 -3 33 -3 29 0 72 12 439 122 91 27 208 62 260 77 53 16 106 33 118 40 l22 12 0 489 0 489 29 48 c16 26 69 116 117 198 48 83 120 207 161 276 77 133 87 170 56 208 -12 14 -120 59 -313 131 -279 104 -358 127 -388 114z m330 -201 c145 -53 267 -100 272 -104 8 -7 -34 -84 -204 -369 -31 -52 -71 -121 -89 -152 -18 -32 -36 -60 -40 -62 -4 -3 -54 13 -112 35 -57 22 -140 54 -184 71 -44 17 -125 48 -180 68 -69 26 -100 43 -99 53 1 14 71 128 209 342 28 44 71 110 94 148 24 37 49 67 57 67 7 0 131 -44 276 -97z m-661 -612 c57 -21 172 -62 254 -91 138 -49 186 -70 158 -70 -10 0 -72 -11 -453 -81 l-115 -21 -237 78 c-131 43 -238 81 -238 85 0 4 483 133 521 138 4 1 53 -16 110 -38z m567 -653 l-3 -421 -70 -23 c-164 -52 -579 -174 -595 -174 -7 0 -10 155 -10 458 l0 457 333 61 c182 34 335 62 340 63 4 0 6 -189 5 -421z"/>
    <path d="M11758 9956 c-10 -7 -18 -25 -18 -39 0 -20 22 -44 108 -115 59 -49 118 -99 132 -112 14 -12 45 -39 70 -59 25 -20 47 -39 50 -42 29 -32 144 -119 159 -119 28 0 55 35 47 62 -4 13 -34 46 -68 73 -33 28 -77 64 -97 81 -54 47 -252 214 -297 251 -43 36 -60 39 -86 19z"/>
    <path d="M30150 9660 c-36 -10 -195 -51 -354 -91 -191 -48 -296 -79 -308 -91 -17 -17 -18 -46 -18 -455 l0 -438 -322 0 c-263 0 -341 -3 -420 -17 -181 -33 -278 -88 -278 -157 0 -99 201 -164 615 -201 180 -16 772 -25 760 -12 -6 6 -65 51 -133 99 l-123 88 1 484 c0 266 3 487 5 491 3 4 125 -32 272 -80 l268 -89 5 -513 c3 -282 7 -514 8 -515 1 -1 11 -7 23 -13 22 -12 13 -14 409 105 96 29 231 69 300 90 69 20 131 41 138 47 9 8 12 121 12 503 0 435 -2 494 -16 506 -19 15 -743 279 -764 278 -8 0 -44 -9 -80 -19z m270 -151 c74 -28 169 -62 210 -76 111 -38 123 -43 118 -49 -7 -6 -526 -104 -555 -104 -30 0 -513 156 -493 160 3 0 124 31 270 69 206 53 271 66 290 59 14 -5 86 -32 160 -59z m490 -627 l0 -418 -112 -33 c-62 -19 -171 -51 -243 -73 -71 -21 -166 -50 -210 -63 -44 -13 -89 -26 -100 -27 -20 -3 -20 3 -23 448 -2 354 1 454 10 461 7 6 42 15 78 21 97 16 342 60 450 81 52 10 107 19 123 20 l27 1 0 -418z"/>
    <path d="M11730 9424 c-30 -36 -2 -63 160 -155 85 -49 162 -88 171 -89 9 0 24 9 34 20 23 26 13 64 -23 82 -15 8 -84 47 -153 86 -129 73 -166 84 -189 56z"/>
    <path d="M32985 8916 c-22 -14 -47 -29 -55 -33 -34 -16 -306 -185 -319 -198 -12 -11 -18 -98 -32 -412 -10 -219 -18 -419 -19 -444 l0 -46 -129 -7 c-239 -12 -372 -49 -448 -121 -39 -38 -43 -46 -43 -89 0 -120 84 -197 265 -243 106 -27 454 -24 672 5 183 25 368 59 526 96 92 22 122 25 194 19 l85 -6 188 194 189 194 1 521 c0 430 -2 524 -14 533 -13 11 -116 18 -616 41 -124 5 -265 12 -315 15 -84 5 -93 4 -130 -19z m568 -102 l407 -18 0 -466 0 -465 -125 -125 -125 -125 0 328 c0 312 -1 328 -20 347 -19 19 -40 18 -67 -3 -10 -7 -13 -95 -13 -379 l0 -369 -32 6 c-18 3 -103 12 -188 20 -441 44 -553 55 -639 65 -52 6 -96 12 -96 13 -3 3 37 952 40 955 2 2 276 -16 744 -49 154 -11 155 -11 173 11 22 28 22 33 1 59 -17 19 -37 22 -258 36 -132 9 -292 20 -355 25 -63 5 -130 10 -149 10 -19 0 -31 3 -27 8 4 4 55 37 114 74 101 63 110 67 157 63 28 -2 233 -12 458 -21z"/>
  </g>
</svg>