<svg xmlns="http://www.w3.org/2000/svg" x="0px" y="0px" width="40" height="40" viewBox="0 0 100 100">
    <path d="M40.7495117,96c-0.9360352,0-1.8427734-0.1972656-2.6948242-0.5849609	c-2.5703125-1.1708984-4.0834961-3.8447266-3.7626953-6.6513672L37.2197266,63H25.75	c-2.5571289,0-4.8852539-1.5078125-5.9316406-3.8408203c-1.0454102-2.3369141-0.6210938-5.0771484,1.0805664-6.9853516	l37.5024414-42.0029297c1.2319336-1.3798828,2.9990234-2.171875,4.8486328-2.171875	c0.9194336,0,1.8120117,0.1904297,2.6518555,0.5664062c2.5883789,1.1542969,4.1210938,3.8271484,3.8085938,6.6484375L66.7558594,42	H78.25c2.574707,0,4.9091797,1.5224609,5.9477539,3.8789062c1.0380859,2.3554688,0.5869141,5.1054688-1.1489258,7.0058594	L45.5463867,93.8876953C44.3139648,95.2314453,42.5668945,96,40.7495117,96z" opacity=".35"></path><path fill="#F2F2F2" d="M38.7495117,94c-0.9360352,0-1.8427734-0.1972656-2.6948242-0.5849609	c-2.5703125-1.1708984-4.0834961-3.8447266-3.7626953-6.6513672L35.2197266,61H23.75	c-2.5571289,0-4.8852539-1.5078125-5.9316406-3.8408203c-1.0454102-2.3369141-0.6210938-5.0771484,1.0805664-6.9853516	L56.4013672,8.1708984c1.2319336-1.3798828,2.9990234-2.171875,4.8486328-2.171875	c0.9194336,0,1.8120117,0.1904297,2.6518555,0.5664062c2.5883789,1.1542969,4.1210938,3.8271484,3.8085938,6.6484375L64.7558594,40	H76.25c2.574707,0,4.9091797,1.5224609,5.9477539,3.8789062c1.0380859,2.3554688,0.5869141,5.1054688-1.1489258,7.0058594	L43.5463867,91.8876953C42.3139648,93.2314453,40.5668945,94,38.7495117,94z"></path><path fill="#27B0C1" stroke="#40396E" stroke-linecap="round" stroke-linejoin="round" stroke-miterlimit="10" stroke-width="3" d="M76.25,46.5H57.5l3.75-34l-37.5,42H42.5l-3.75,33L76.25,46.5z"></path>
</svg>
