<svg xmlns="http://www.w3.org/2000/svg" x="0px" y="0px" width="48" height="48" viewBox="4 4 40 40">
<path d="M 35.5 5.5097656 C 34.643869 5.5097656 33.786976 5.8321645 33.142578 6.4765625 L 29.476562 10.142578 C 28.187273 11.431868 28.187274 13.568132 29.476562 14.857422 L 33.142578 18.525391 C 34.431374 19.814187 36.568626 19.814187 37.857422 18.525391 L 41.523438 14.857422 C 42.812726 13.568132 42.812726 11.431868 41.523438 10.142578 L 37.857422 6.4765625 C 37.213024 5.8321645 36.356131 5.5097656 35.5 5.5097656 z M 12.5 6 C 10.458334 6 8.7371483 6.8196335 7.6289062 8.0664062 C 6.5206642 9.3131791 6 10.916667 6 12.5 C 6 14.083333 6.5206642 15.686821 7.6289062 16.933594 C 8.7371483 18.180367 10.458334 19 12.5 19 C 16.072085 19 19 16.072082 19 12.5 C 19 8.9279176 16.072085 6 12.5 6 z M 35.5 8.4902344 C 35.581387 8.4902344 35.662773 8.5260542 35.734375 8.5976562 L 39.402344 12.265625 C 39.545054 12.408335 39.545054 12.593618 39.402344 12.736328 L 35.734375 16.404297 C 35.591171 16.547501 35.408829 16.547501 35.265625 16.404297 L 31.597656 12.736328 C 31.454946 12.593618 31.454946 12.408335 31.597656 12.265625 L 35.265625 8.5976562 C 35.337227 8.5260542 35.418613 8.4902344 35.5 8.4902344 z M 12.5 9 C 14.450766 9 16 10.549235 16 12.5 C 16 14.450765 14.450766 16 12.5 16 C 11.208334 16 10.429518 15.569633 9.8710938 14.941406 C 9.3126698 14.313179 9 13.416667 9 12.5 C 9 11.583333 9.3126698 10.686821 9.8710938 10.058594 C 10.429518 9.4303663 11.208334 9 12.5 9 z M 22.5 11 A 1.50015 1.50015 0 1 0 22.5 14 L 25.5 14 A 1.50015 1.50015 0 1 0 25.5 11 L 22.5 11 z M 12.476562 20.978516 A 1.50015 1.50015 0 0 0 11 22.5 L 11 25.5 A 1.50015 1.50015 0 1 0 14 25.5 L 14 22.5 A 1.50015 1.50015 0 0 0 12.476562 20.978516 z M 35.476562 20.978516 A 1.50015 1.50015 0 0 0 34 22.5 L 34 25.5 A 1.50015 1.50015 0 1 0 37 25.5 L 37 22.5 A 1.50015 1.50015 0 0 0 35.476562 20.978516 z M 9.5 29 C 7.5850452 29 6 30.585045 6 32.5 L 6 38.5 C 6 40.414955 7.5850452 42 9.5 42 L 15.5 42 C 17.414955 42 19 40.414955 19 38.5 L 19 32.5 C 19 30.585045 17.414955 29 15.5 29 L 9.5 29 z M 35.5 29 C 33.458334 29 31.737148 29.819633 30.628906 31.066406 C 29.520664 32.313179 29 33.916667 29 35.5 C 29 37.083333 29.520664 38.686821 30.628906 39.933594 C 31.737148 41.180367 33.458334 42 35.5 42 C 39.072085 42 42 39.072082 42 35.5 C 42 31.927918 39.072085 29 35.5 29 z M 9.5 32 L 15.5 32 C 15.795045 32 16 32.204955 16 32.5 L 16 38.5 C 16 38.795045 15.795045 39 15.5 39 L 9.5 39 C 9.2049548 39 9 38.795045 9 38.5 L 9 32.5 C 9 32.204955 9.2049548 32 9.5 32 z M 35.5 32 C 37.450766 32 39 33.549235 39 35.5 C 39 37.450765 37.450766 39 35.5 39 C 34.208334 39 33.429518 38.569633 32.871094 37.941406 C 32.31267 37.313179 32 36.416667 32 35.5 C 32 34.583333 32.31267 33.686821 32.871094 33.058594 C 33.429518 32.430367 34.208334 32 35.5 32 z"></path>
</svg>
