<svg xmlns="http://www.w3.org/2000/svg" x="0px" y="0px" width="64" height="64" viewBox="0 0 72 72">
<path fill="#27b1c1" d="M 20.226562 23.439453 C 19.203187 23.455828 18.184062 23.86275 17.414062 24.65625 L 9.1269531 33.21875 C 7.6259531 34.76975 7.6259531 37.232203 9.1269531 38.783203 L 17.414062 47.34375 C 18.199062 48.15375 19.244062 48.560547 20.289062 48.560547 C 21.292062 48.560547 22.294313 48.186594 23.070312 47.433594 C 24.657313 45.897594 24.698109 43.364344 23.162109 41.777344 L 21.441406 40 L 60 40 C 62.209 40 64 38.209 64 36 C 64 33.791 62.209 32 60 32 L 21.441406 32 L 23.162109 30.222656 C 24.698109 28.635656 24.657312 26.103406 23.070312 24.566406 C 22.277813 23.798406 21.249938 23.423078 20.226562 23.439453 z"></path>
</svg>